<mxfile host="65bd71144e">
    <diagram id="JR51kfBBkCoqazEDlZEo" name="Page-1">
        <mxGraphModel dx="1904" dy="764" grid="1" gridSize="10" guides="1" tooltips="1" connect="1" arrows="1" fold="1" page="1" pageScale="1" pageWidth="850" pageHeight="1100" math="0" shadow="0">
            <root>
                <mxCell id="0"/>
                <mxCell id="1" parent="0"/>
                <mxCell id="2" value="UNCRYPETED&lt;br&gt;DATA" style="shape=card;whiteSpace=wrap;html=1;fillStyle=hatch;strokeColor=#001DBC;fillColor=#0050ef;fontColor=#ffffff;" vertex="1" parent="1">
                    <mxGeometry x="-120" y="440" width="100" height="110" as="geometry"/>
                </mxCell>
                <mxCell id="3" value="PRIVATE KEY" style="shape=display;whiteSpace=wrap;html=1;fillStyle=hatch;strokeColor=#FF3333;fillColor=#FF0000;fontColor=#ffffff;" vertex="1" parent="1">
                    <mxGeometry x="290" y="240" width="120" height="50" as="geometry"/>
                </mxCell>
                <mxCell id="4" value="PUBLIC KEY" style="shape=delay;whiteSpace=wrap;html=1;fillStyle=hatch;strokeColor=#005700;fillColor=#008a00;fontColor=#ffffff;" vertex="1" parent="1">
                    <mxGeometry x="20" y="470" width="120" height="50" as="geometry"/>
                </mxCell>
                <mxCell id="7" value="EVALUATION KEY" style="shape=process;whiteSpace=wrap;html=1;backgroundOutline=1;fillStyle=hatch;strokeColor=#7F00FF;fillColor=#6600CC;gradientColor=none;" vertex="1" parent="1">
                    <mxGeometry x="305" y="465" width="120" height="60" as="geometry"/>
                </mxCell>
                <mxCell id="8" value="CRYPETED&lt;br&gt;DATA" style="shape=note;whiteSpace=wrap;html=1;backgroundOutline=1;darkOpacity=0.05;fillStyle=hatch;strokeColor=#FF3399;fillColor=#FF0080;gradientColor=none;" vertex="1" parent="1">
                    <mxGeometry x="180" y="440" width="90" height="110" as="geometry"/>
                </mxCell>
                <mxCell id="9" value="CRYPETED&lt;br&gt;DATA" style="shape=note;whiteSpace=wrap;html=1;backgroundOutline=1;darkOpacity=0.05;fillStyle=hatch;strokeColor=#FF3399;fillColor=#FF0080;gradientColor=none;" vertex="1" parent="1">
                    <mxGeometry x="490" y="375" width="90" height="110" as="geometry"/>
                </mxCell>
                <mxCell id="11" value="" style="rounded=0;whiteSpace=wrap;html=1;fillStyle=auto;strokeColor=#66FFFF;fillColor=none;gradientColor=none;" vertex="1" parent="1">
                    <mxGeometry x="470" y="360" width="130" height="270" as="geometry"/>
                </mxCell>
                <mxCell id="12" value="METADATA" style="shape=card;whiteSpace=wrap;html=1;fillStyle=hatch;strokeColor=#001DBC;fillColor=#0050ef;fontColor=#ffffff;" vertex="1" parent="1">
                    <mxGeometry x="485" y="505" width="100" height="110" as="geometry"/>
                </mxCell>
                <mxCell id="15" value="UNCRYPETED&lt;br&gt;DATA" style="shape=card;whiteSpace=wrap;html=1;fillStyle=hatch;strokeColor=#001DBC;fillColor=#0050ef;fontColor=#ffffff;" vertex="1" parent="1">
                    <mxGeometry x="470" y="210" width="100" height="110" as="geometry"/>
                </mxCell>
                <mxCell id="17" value="" style="endArrow=classic;html=1;" edge="1" parent="1" source="2" target="4">
                    <mxGeometry width="50" height="50" relative="1" as="geometry">
                        <mxPoint x="330" y="480" as="sourcePoint"/>
                        <mxPoint x="380" y="430" as="targetPoint"/>
                    </mxGeometry>
                </mxCell>
                <mxCell id="18" value="" style="endArrow=classic;html=1;exitX=1;exitY=0.5;exitDx=0;exitDy=0;" edge="1" parent="1" source="4" target="8">
                    <mxGeometry width="50" height="50" relative="1" as="geometry">
                        <mxPoint x="330" y="480" as="sourcePoint"/>
                        <mxPoint x="380" y="430" as="targetPoint"/>
                    </mxGeometry>
                </mxCell>
                <mxCell id="19" value="" style="endArrow=classic;html=1;entryX=0;entryY=0.5;entryDx=0;entryDy=0;" edge="1" parent="1" source="8" target="7">
                    <mxGeometry width="50" height="50" relative="1" as="geometry">
                        <mxPoint x="330" y="480" as="sourcePoint"/>
                        <mxPoint x="380" y="430" as="targetPoint"/>
                    </mxGeometry>
                </mxCell>
                <mxCell id="20" value="" style="endArrow=classic;html=1;exitX=1;exitY=0.5;exitDx=0;exitDy=0;entryX=0;entryY=0.5;entryDx=0;entryDy=0;" edge="1" parent="1" source="7" target="11">
                    <mxGeometry width="50" height="50" relative="1" as="geometry">
                        <mxPoint x="330" y="480" as="sourcePoint"/>
                        <mxPoint x="380" y="430" as="targetPoint"/>
                    </mxGeometry>
                </mxCell>
                <mxCell id="21" value="" style="endArrow=classic;html=1;exitX=0.5;exitY=0;exitDx=0;exitDy=0;exitPerimeter=0;entryX=0.192;entryY=0.98;entryDx=0;entryDy=0;entryPerimeter=0;" edge="1" parent="1" source="8" target="3">
                    <mxGeometry width="50" height="50" relative="1" as="geometry">
                        <mxPoint x="330" y="480" as="sourcePoint"/>
                        <mxPoint x="380" y="430" as="targetPoint"/>
                    </mxGeometry>
                </mxCell>
                <mxCell id="22" value="" style="endArrow=classic;html=1;exitX=1;exitY=0.5;exitDx=0;exitDy=0;exitPerimeter=0;" edge="1" parent="1" source="3" target="15">
                    <mxGeometry width="50" height="50" relative="1" as="geometry">
                        <mxPoint x="330" y="480" as="sourcePoint"/>
                        <mxPoint x="380" y="430" as="targetPoint"/>
                    </mxGeometry>
                </mxCell>
                <mxCell id="23" value="" style="endArrow=classic;html=1;entryX=0;entryY=0;entryDx=95;entryDy=50;entryPerimeter=0;" edge="1" parent="1" source="11" target="3">
                    <mxGeometry width="50" height="50" relative="1" as="geometry">
                        <mxPoint x="330" y="480" as="sourcePoint"/>
                        <mxPoint x="380" y="430" as="targetPoint"/>
                    </mxGeometry>
                </mxCell>
            </root>
        </mxGraphModel>
    </diagram>
</mxfile>